<svg width="20" height="21" viewBox="0 0 20 21" fill="none" xmlns="http://www.w3.org/2000/svg">
<path fill-rule="evenodd" clip-rule="evenodd" d="M2.81453 0C2.95288 0 3.16904 0.0259403 3.46304 0.077821C3.75703 0.129702 3.99481 0.194552 4.17639 0.272373C4.35798 0.350195 4.47903 0.410722 4.53956 0.453956C4.60009 0.49719 4.68223 0.553394 4.78599 0.622568C4.88975 0.691742 5.04972 0.843061 5.26589 1.07652C5.48206 1.30999 5.65932 1.55642 5.79767 1.81582C5.93601 2.07523 6.02248 2.33463 6.05707 2.59403C6.09166 2.85344 6.10895 2.99179 6.10895 3.00908C6.10895 3.02637 6.10895 3.11284 6.10895 3.26848C6.10895 3.42412 6.10895 3.51059 6.10895 3.52789C6.10895 3.54518 6.10895 3.56247 6.10895 3.57977C6.10895 3.59706 6.10895 3.61435 6.10895 3.63165C6.10895 3.64894 6.09598 3.79594 6.07004 4.07263L6.03113 4.48768L6.70558 4.47471C7.15521 4.46606 7.5962 4.47038 8.02853 4.48768C8.46087 4.50497 9.55037 4.51794 11.297 4.52659L13.917 4.53956L13.8781 4.22827C13.8521 4.02075 13.8392 3.79594 13.8392 3.55383C13.8392 3.31172 13.8651 3.05231 13.917 2.77562C13.9689 2.49892 14.0424 2.24384 14.1375 2.01038C14.2326 1.77691 14.2931 1.63856 14.3191 1.59533C14.345 1.5521 14.3839 1.49589 14.4358 1.42672C14.4877 1.35754 14.5785 1.24946 14.7082 1.10246C14.8379 0.955469 14.9373 0.856031 15.0065 0.80415C15.0757 0.75227 15.1535 0.691742 15.2399 0.622568C15.3264 0.553394 15.4821 0.466926 15.7069 0.363165C15.9317 0.259403 16.1652 0.181582 16.4073 0.129702C16.6494 0.077821 16.8655 0.0518807 17.0558 0.0518807C17.246 0.0518807 17.4622 0.0691742 17.7043 0.103761C17.9464 0.138348 18.1971 0.207523 18.4566 0.311284C18.716 0.415045 18.9019 0.514483 19.0143 0.609598C19.1267 0.704712 19.2261 0.786857 19.3126 0.856031C19.399 0.925205 19.4855 1.02897 19.572 1.16732C19.6585 1.30566 19.7449 1.48725 19.8314 1.71206C19.9179 1.93688 19.9697 2.09252 19.987 2.17899C20.0043 2.26546 20.0043 2.45569 19.987 2.74968C19.9697 3.04367 19.9265 3.28578 19.8573 3.476C19.7882 3.66623 19.719 3.81323 19.6498 3.91699C19.5806 4.02075 19.4812 4.12884 19.3515 4.24124C19.2218 4.35365 19.0964 4.44444 18.9754 4.51362C18.8543 4.58279 18.7332 4.63467 18.6122 4.66926C18.4911 4.70385 18.2923 4.71249 18.0156 4.6952C17.7389 4.67791 17.5227 4.63467 17.3671 4.5655C17.2114 4.49632 17.0817 4.42715 16.978 4.35798C16.8742 4.2888 16.7704 4.19369 16.6667 4.07263C16.5629 3.95158 16.4937 3.88673 16.4591 3.87808L16.4073 3.86511L16.4462 4.15045C16.4721 4.34068 16.5543 4.61738 16.6926 4.98054C16.831 5.34371 16.9477 5.62473 17.0428 5.82361C17.1379 6.02248 17.1898 6.12624 17.1984 6.13489C17.2071 6.14354 17.2374 6.19974 17.2892 6.3035C17.3411 6.40726 17.3843 6.48508 17.4189 6.53696C17.4535 6.58885 17.5832 6.85689 17.808 7.34111C18.0329 7.82533 18.1971 8.19715 18.3009 8.45655C18.4047 8.71595 18.4825 8.91483 18.5344 9.05318C18.5863 9.19153 18.69 9.50281 18.8457 9.98703C19.0013 10.4712 19.0964 10.9295 19.131 11.3619C19.1656 11.7942 19.1829 12.019 19.1829 12.0363C19.1829 12.0536 19.1742 12.3735 19.1569 12.9961C19.1396 13.6187 19.0964 14.1461 19.0272 14.5785C18.9581 15.0108 18.8889 15.3307 18.8197 15.5383C18.7505 15.7458 18.6295 16.0311 18.4566 16.3943C18.2836 16.7575 18.1626 16.9823 18.0934 17.0687C18.0242 17.1552 17.9377 17.2849 17.834 17.4578C17.7302 17.6308 17.6783 17.7345 17.6783 17.7691V17.821L17.7691 18.0156C17.8297 18.1453 17.8642 18.2144 17.8729 18.2231C17.8815 18.2317 17.9248 18.3268 18.0026 18.5084C18.0804 18.69 18.1236 18.7851 18.1323 18.7938C18.1409 18.8024 18.1712 18.8586 18.2231 18.9624C18.275 19.0661 18.3701 19.2477 18.5084 19.5071C18.6468 19.7665 18.7203 19.9308 18.7289 20L18.7419 20.1038L15.6031 20.0908C13.5106 20.0821 12.4557 20.0778 12.4384 20.0778C12.4211 20.0778 12.3865 20.0778 12.3346 20.0778C12.2828 20.0778 12.1703 20.0778 11.9974 20.0778C11.8245 20.0778 10.9684 20.0778 9.42931 20.0778C7.89019 20.0778 7.11198 20.0778 7.09468 20.0778C7.07739 20.0778 7.0601 20.0778 7.0428 20.0778C7.02551 20.0778 6.7834 20.0692 6.31647 20.0519C5.84955 20.0346 4.88975 20.0259 3.43709 20.0259C1.98444 20.0259 1.24946 20.0259 1.23217 20.0259C1.21487 20.0259 1.18893 20.0216 1.15435 20.013L1.10246 20L1.14137 19.8703C1.16732 19.7838 1.28405 19.5417 1.49157 19.144C1.69909 18.7462 1.84609 18.4695 1.93256 18.3139C2.01902 18.1582 2.0882 18.0285 2.14008 17.9248C2.19196 17.821 2.2179 17.7259 2.2179 17.6394V17.5097L2.11414 17.38C2.04496 17.2936 1.98444 17.2157 1.93256 17.1466C1.88067 17.0774 1.83744 17.0169 1.80285 16.965C1.76827 16.9131 1.65586 16.7056 1.46563 16.3424C1.2754 15.9792 1.1284 15.6507 1.02464 15.3567C0.920882 15.0627 0.843061 14.7946 0.79118 14.5525C0.7393 14.3104 0.704713 14.0942 0.687419 13.904C0.670125 13.7138 0.670125 13.195 0.687419 12.3476C0.704713 11.5002 0.76524 10.8604 0.869001 10.428C0.972763 9.99568 1.05923 9.67574 1.1284 9.46822C1.19758 9.2607 1.28405 9.02724 1.38781 8.76783C1.49157 8.50843 1.58668 8.27497 1.67315 8.06744C1.75962 7.85992 1.83312 7.69131 1.89364 7.56161C1.95417 7.43191 1.99741 7.34544 2.02335 7.3022C2.04929 7.25897 2.10549 7.15953 2.19196 7.00389C2.27843 6.84825 2.36489 6.69261 2.45136 6.53696C2.53783 6.38132 2.6243 6.22568 2.71077 6.07004C2.79723 5.9144 2.93558 5.66364 3.12581 5.31777C3.31604 4.9719 3.47168 4.66061 3.59274 4.38392C3.71379 4.10722 3.76567 3.85646 3.74838 3.63165C3.73109 3.40683 3.71379 3.28578 3.6965 3.26848L3.67056 3.24254L3.59274 3.57977C3.54086 3.80458 3.4933 3.96022 3.45006 4.04669L3.38521 4.17639L3.30739 4.2153C3.25551 4.24124 3.16904 4.3061 3.04799 4.40986C2.92693 4.51362 2.77994 4.60009 2.607 4.66926C2.43407 4.73843 2.22655 4.76437 1.98444 4.74708C1.74233 4.72979 1.54345 4.6952 1.38781 4.64332C1.23217 4.59144 1.08517 4.52226 0.946822 4.4358C0.808474 4.34933 0.683096 4.25854 0.570687 4.16342C0.458279 4.06831 0.376135 3.98616 0.324254 3.91699C0.272374 3.84782 0.211846 3.72676 0.142672 3.55383C0.0734976 3.38089 0.0302637 3.25119 0.0129702 3.16472C-0.00432339 3.07825 -0.00432339 2.88802 0.0129702 2.59403C0.0302637 2.30004 0.0734976 2.07523 0.142672 1.91958C0.211846 1.76394 0.298314 1.59965 0.402075 1.42672C0.505837 1.25378 0.587981 1.1284 0.648508 1.05058C0.709036 0.972763 0.773887 0.907912 0.843061 0.856031C0.912235 0.80415 0.990056 0.743623 1.07652 0.674449C1.16299 0.605274 1.30999 0.51016 1.51751 0.389105C1.72503 0.26805 1.9585 0.172936 2.2179 0.103761C2.4773 0.0345871 2.67618 0 2.81453 0ZM6.42023 5.74578L7.22438 5.73281L7.23735 6.1738C7.246 6.46779 7.23303 7.7821 7.19844 10.1167C7.16386 12.4514 7.14656 13.6273 7.14656 13.6446C7.14656 13.6619 7.13792 13.9818 7.12062 14.6044C7.10333 15.227 7.08604 15.6074 7.06874 15.7458C7.05145 15.8841 7.03848 15.9576 7.02983 15.9663L7.01686 15.9792L6.80934 15.9533C6.67099 15.936 6.50238 15.8712 6.3035 15.7588C6.10463 15.6463 6.00086 15.5728 5.99222 15.5383C5.98357 15.5037 5.94466 15.4734 5.87549 15.4475C5.80631 15.4215 5.73714 15.3826 5.66796 15.3307C5.59879 15.2789 5.54259 15.2313 5.49935 15.1881C5.45612 15.1448 5.43018 15.1059 5.42153 15.0713C5.41288 15.0367 5.38694 15.0108 5.34371 14.9935C5.30048 14.9762 5.25292 14.933 5.20104 14.8638C5.14916 14.7946 5.11025 14.7471 5.08431 14.7211C5.05837 14.6952 5.01513 14.6693 4.9546 14.6433C4.89408 14.6174 4.85517 14.5871 4.83787 14.5525L4.81193 14.5006L4.79896 14.3191C4.79032 14.198 4.76438 14.1288 4.72114 14.1115C4.67791 14.0942 4.61306 14.0078 4.52659 13.8521C4.44012 13.6965 4.35365 13.5149 4.26719 13.3074C4.18072 13.0999 4.12019 12.9096 4.0856 12.7367C4.05102 12.5638 4.01643 12.3044 3.98184 11.9585C3.94725 11.6126 3.92996 11.431 3.92996 11.4137C3.92996 11.3965 3.93861 11.2495 3.9559 10.9728C3.9732 10.6961 4.02508 10.3588 4.11154 9.96109C4.19801 9.56334 4.33636 9.10506 4.52659 8.58625C4.71682 8.06744 4.86381 7.68699 4.96757 7.44488C5.07134 7.20277 5.1578 6.97795 5.22698 6.77043C5.29615 6.5629 5.36533 6.37268 5.4345 6.19974C5.50367 6.0268 5.55123 5.91007 5.57717 5.84955L5.61608 5.75875L6.42023 5.74578ZM8.83269 5.75875H9.29961L9.31258 5.77172C9.32123 5.78037 9.31691 6.96066 9.29961 9.31258C9.28232 11.6645 9.26502 12.8578 9.24773 12.8923C9.23044 12.9269 9.22179 13.022 9.22179 13.1777C9.22179 13.3333 9.22179 13.4198 9.22179 13.4371C9.22179 13.4544 9.22179 13.5063 9.22179 13.5927C9.22179 13.6792 9.22179 13.8435 9.22179 14.0856C9.22179 14.3277 9.23044 14.7082 9.24773 15.227C9.26502 15.7458 9.29097 16.0571 9.32555 16.1608C9.36014 16.2646 9.37743 16.3251 9.37743 16.3424C9.37743 16.3597 9.36879 16.4029 9.35149 16.4721C9.3342 16.5413 9.32987 16.5802 9.33852 16.5888L9.35149 16.6018L9.32555 16.6278C9.30826 16.645 9.27367 16.658 9.22179 16.6667C9.16991 16.6753 9.14397 16.6623 9.14397 16.6278C9.14397 16.5932 9.00562 16.5586 8.72892 16.524L8.31388 16.4721L8.30091 16.3424C8.29226 16.2559 8.28794 16.1868 8.28794 16.1349C8.28794 16.083 8.28794 15.9706 8.28794 15.7977C8.28794 15.6247 8.28794 14.7773 8.28794 13.2555C8.28794 11.7337 8.28794 10.9641 8.28794 10.9468C8.28794 10.9295 8.29658 10.0648 8.31388 8.35279C8.33117 6.64073 8.34414 5.78037 8.35279 5.77172L8.36576 5.75875H8.83269ZM10.4799 5.99222L10.4929 5.78469H11.4786L11.4916 7.6524C11.5002 8.89753 11.5132 10.0908 11.5305 11.2322C11.5478 12.3735 11.5478 12.9875 11.5305 13.0739C11.5132 13.1604 11.5045 13.2123 11.5045 13.2296C11.5045 13.2469 11.5045 13.2642 11.5045 13.2815C11.5045 13.2987 11.5045 13.3679 11.5045 13.489C11.5045 13.61 11.5132 13.6965 11.5305 13.7484C11.5478 13.8003 11.5607 14.198 11.5694 14.9416L11.5824 16.0571L11.4527 16.07C11.3662 16.0787 11.3143 16.083 11.297 16.083C11.2797 16.083 11.1241 16.0787 10.8301 16.07L10.3891 16.0571L10.3761 14.9157C10.3675 14.1548 10.3718 13.7484 10.3891 13.6965C10.4064 13.6446 10.4064 13.5841 10.3891 13.5149C10.3718 13.4457 10.3632 13.342 10.3632 13.2036C10.3632 13.0653 10.3718 12.9788 10.3891 12.9442C10.4064 12.9096 10.4237 11.7769 10.441 9.54604C10.4583 7.31517 10.4712 6.13057 10.4799 5.99222ZM12.6848 9.54604L12.7237 5.78469L13.5279 5.79766L14.332 5.81064L14.3709 5.87549C14.3969 5.91872 14.479 6.09598 14.6174 6.40726C14.7557 6.71855 14.9027 7.09036 15.0584 7.5227C15.214 7.95504 15.3437 8.35279 15.4475 8.71595C15.5512 9.07912 15.6291 9.39905 15.6809 9.67575C15.7328 9.95244 15.7501 10.4453 15.7328 11.1543C15.7155 11.8634 15.6896 12.313 15.655 12.5032C15.6204 12.6935 15.6074 12.7929 15.6161 12.8016C15.6247 12.8102 15.6074 12.8275 15.5642 12.8534C15.521 12.8794 15.4907 12.9356 15.4734 13.022C15.4561 13.1085 15.4129 13.2036 15.3437 13.3074C15.2745 13.4112 15.2486 13.5149 15.2659 13.6187C15.2832 13.7224 15.2875 13.8003 15.2789 13.8521L15.2659 13.93L15.0973 13.9559C14.9849 13.9732 14.92 14.1029 14.9027 14.345L14.8768 14.7082L14.8508 14.6822C14.8335 14.6649 14.8206 14.6736 14.8119 14.7082C14.8033 14.7428 14.7644 14.7687 14.6952 14.786C14.626 14.8033 14.5914 14.8292 14.5914 14.8638C14.5914 14.8984 14.5655 14.9287 14.5136 14.9546C14.4617 14.9805 14.4012 15.0367 14.332 15.1232L14.2283 15.2529L14.1245 15.2918C14.0553 15.3178 14.0121 15.3437 13.9948 15.3696C13.9775 15.3956 13.9516 15.4042 13.917 15.3956C13.8824 15.3869 13.8565 15.4042 13.8392 15.4475C13.8219 15.4907 13.7786 15.521 13.7095 15.5383C13.6403 15.5556 13.5711 15.5901 13.5019 15.642C13.4328 15.6939 13.3463 15.7458 13.2425 15.7977C13.1388 15.8495 13.0523 15.8928 12.9831 15.9274C12.914 15.962 12.8448 15.9836 12.7756 15.9922L12.6719 16.0052L12.6589 14.6563C12.6502 13.757 12.6589 12.0536 12.6848 9.54604Z" fill="#A75F36"/>
</svg>
